<svg width="25" height="29" viewBox="0 0 25 29" fill="none" xmlns="http://www.w3.org/2000/svg">
<path d="M9.93467 12.6665C10.7347 12.6665 11.3827 13.2665 11.368 13.9998C11.368 14.7332 10.736 15.3332 9.93467 15.3332C9.148 15.3332 8.5 14.7332 8.5 13.9998C8.5 13.2665 9.13333 12.6665 9.93467 12.6665ZM15.0653 12.6665C15.8667 12.6665 16.5 13.2665 16.5 13.9998C16.5 14.7332 15.8667 15.3332 15.0653 15.3332C14.2787 15.3332 13.632 14.7332 13.632 13.9998C13.632 13.2665 14.264 12.6665 15.0653 12.6665ZM21.688 0.666504C23.2387 0.666504 24.5 1.9545 24.5 3.5505V28.6665L21.552 26.0065L19.892 24.4385L18.136 22.7718L18.864 25.3625H3.312C1.76133 25.3625 0.5 24.0745 0.5 22.4785V3.5505C0.5 1.9545 1.76133 0.666504 3.312 0.666504H21.6867H21.688ZM16.3947 18.9505C19.4253 18.8532 20.592 16.8225 20.592 16.8225C20.592 12.3145 18.616 8.65984 18.616 8.65984C16.6427 7.14917 14.7627 7.1905 14.7627 7.1905L14.5707 7.4145C16.9027 8.1425 17.9853 9.19317 17.9853 9.19317C16.7121 8.47582 15.3089 8.01895 13.8573 7.84917C12.9366 7.74518 12.0066 7.75413 11.088 7.87584C11.0053 7.87584 10.936 7.8905 10.8547 7.90384C10.3747 7.9465 9.208 8.12784 7.74133 8.7865C7.23467 9.02384 6.932 9.19317 6.932 9.19317C6.932 9.19317 8.07067 8.0865 10.5387 7.3585L10.4013 7.1905C10.4013 7.1905 8.52267 7.14917 6.548 8.66117C6.548 8.66117 4.57333 12.3145 4.57333 16.8225C4.57333 16.8225 5.72533 18.8518 8.756 18.9505C8.756 18.9505 9.26267 18.3212 9.676 17.7892C7.93333 17.2558 7.276 16.1358 7.276 16.1358C7.276 16.1358 7.412 16.2345 7.65867 16.3745C7.672 16.3878 7.68533 16.4025 7.71333 16.4158C7.75467 16.4452 7.796 16.4585 7.83733 16.4865C8.18 16.6825 8.52267 16.8358 8.83733 16.9625C9.4 17.1865 10.072 17.4105 10.8547 17.5652C12.0271 17.795 13.2325 17.7995 14.4067 17.5785C15.0906 17.4564 15.7578 17.2546 16.3947 16.9772C16.8747 16.7945 17.4093 16.5278 17.972 16.1505C17.972 16.1505 17.2867 17.2985 15.4893 17.8172C15.9013 18.3492 16.396 18.9505 16.396 18.9505H16.3947Z" fill="white"/>
</svg>
