<svg width="25" height="24" viewBox="0 0 25 24" fill="none" xmlns="http://www.w3.org/2000/svg">
<path d="M1.83333 0H23.1667C23.5203 0 23.8594 0.140476 24.1095 0.390524C24.3595 0.640573 24.5 0.979711 24.5 1.33333V22.6667C24.5 23.0203 24.3595 23.3594 24.1095 23.6095C23.8594 23.8595 23.5203 24 23.1667 24H1.83333C1.47971 24 1.14057 23.8595 0.890524 23.6095C0.640476 23.3594 0.5 23.0203 0.5 22.6667V1.33333C0.5 0.979711 0.640476 0.640573 0.890524 0.390524C1.14057 0.140476 1.47971 0 1.83333 0ZM19.5667 17.2533C19.4333 17.1867 19.3667 16.9867 19.3667 16.852V6.67467C19.3667 6.54133 19.4333 6.34133 19.5667 6.20667L20.84 4.73333V4.66667H16.2867L12.8733 13.304L8.988 4.66667H4.30267V4.73333L5.50667 6.408C5.77467 6.67467 5.84133 7.07733 5.84133 7.412V14.776C5.908 15.1787 5.84133 15.6467 5.64133 16.048L3.83333 18.5253V18.592H8.65467V18.5253L6.84667 16.116C6.64667 15.7133 6.57867 15.312 6.64667 14.844V8.14667C6.71333 8.28 6.78 8.28 6.84667 8.548L11.3987 18.7253H11.4653L15.8867 7.68C15.82 8.08 15.82 8.54933 15.82 8.88533V16.7853C15.82 16.9853 15.7533 17.1187 15.62 17.2533L14.28 18.5253V18.592H20.8413V18.5253L19.5693 17.2533H19.5667Z" fill="white"/>
</svg>
