<svg width="11" height="10" viewBox="0 0 11 10" fill="none" xmlns="http://www.w3.org/2000/svg">
<path d="M8.02222 0.511111L5.93333 3.61111C5.78889 3.82222 6.06667 4.07778 6.26667 3.9L8.32222 2.11111C8.37778 2.06667 8.45556 2.1 8.45556 2.17778V7.76667C8.45556 7.84444 8.35556 7.87778 8.31111 7.82222L2.08889 0.377778C1.88889 0.133333 1.6 0 1.27778 0H1.05556C0.477778 0 0 0.477778 0 1.06667V8.93333C0 9.52222 0.477778 10 1.06667 10C1.43333 10 1.77778 9.81111 1.97778 9.48889L4.06667 6.38889C4.21111 6.17778 3.93333 5.92222 3.73333 6.1L1.67778 7.87778C1.62222 7.92222 1.54444 7.88889 1.54444 7.81111V2.23333C1.54444 2.15556 1.64444 2.12222 1.68889 2.17778L7.91111 9.62222C8.11111 9.86667 8.41111 10 8.72222 10H8.94444C9.53333 10 10.0111 9.52222 10.0111 8.93333V1.06667C10.0111 0.477778 9.53333 0 8.94444 0C8.56667 0 8.22222 0.188889 8.02222 0.511111Z" fill="black"/>
</svg>
