<svg width="10" height="10" viewBox="0 0 10 10" fill="none" xmlns="http://www.w3.org/2000/svg">
<path fill-rule="evenodd" clip-rule="evenodd" d="M6.00033 1.98724C6.00033 1.43496 5.55261 0.987244 5.00033 0.987244C4.44804 0.987244 4.00033 1.43496 4.00033 1.98724V4.32058H1.66699C1.11471 4.32058 0.666992 4.76829 0.666992 5.32058C0.666992 5.87286 1.11471 6.32058 1.66699 6.32058H4.00033V8.65391C4.00033 9.20619 4.44804 9.65391 5.00033 9.65391C5.55261 9.65391 6.00033 9.20619 6.00033 8.65391V6.32058H8.33366C8.88594 6.32058 9.33366 5.87286 9.33366 5.32058C9.33366 4.76829 8.88594 4.32058 8.33366 4.32058H6.00033V1.98724Z" fill="#F9FAFA"/>
</svg>
