<svg width="27" height="28" viewBox="0 0 27 28" fill="none" xmlns="http://www.w3.org/2000/svg">
<path d="M13.5001 27.3332C6.13608 27.3332 0.166748 21.3638 0.166748 13.9998C0.166748 6.63584 6.13608 0.666504 13.5001 0.666504C20.8641 0.666504 26.8334 6.63584 26.8334 13.9998C26.8334 21.3638 20.8641 27.3332 13.5001 27.3332ZM9.35342 15.5598L9.37075 15.5505L10.5307 19.3772C10.6801 19.7918 10.8854 19.8665 11.1347 19.8318C11.3854 19.7985 11.5174 19.6638 11.6814 19.5065L13.2654 17.9758L16.6654 20.4932C17.2867 20.8358 17.7334 20.6585 17.8881 19.9172L20.0974 9.48784C20.3414 8.51717 19.9147 8.12784 19.1614 8.43717L6.18408 13.4505C5.29875 13.8052 5.30408 14.3012 6.02408 14.5212L9.35342 15.5612V15.5598Z" fill="white"/>
</svg>
