<svg width="29" height="24" viewBox="0 0 29 24" fill="none" xmlns="http://www.w3.org/2000/svg">
<path d="M28.0494 3.54124C27.0315 3.99149 25.952 4.2872 24.8467 4.41857C26.0117 3.72181 26.8837 2.62525 27.3001 1.33324C26.2067 1.9839 25.0081 2.4399 23.7587 2.68657C22.9195 1.78867 21.8072 1.19319 20.5947 0.992682C19.3821 0.792177 18.1373 0.99789 17.0538 1.57784C15.9702 2.15779 15.1086 3.07948 14.6029 4.19963C14.0972 5.31977 13.9757 6.57561 14.2574 7.7719C12.0402 7.66077 9.87118 7.0846 7.89112 6.08079C5.91106 5.07698 4.16424 3.66797 2.76407 1.94524C2.26846 2.7965 2.00801 3.7642 2.0094 4.74924C2.0094 6.68257 2.9934 8.39057 4.4894 9.39057C3.60408 9.3627 2.73825 9.12361 1.96407 8.69324V8.76257C1.96434 10.0502 2.4099 11.2981 3.2252 12.2946C4.04051 13.2912 5.17538 13.9752 6.4374 14.2306C5.61556 14.4533 4.75381 14.4861 3.9174 14.3266C4.27323 15.4349 4.96675 16.4042 5.90086 17.0987C6.83497 17.7933 7.96291 18.1783 9.12674 18.1999C7.97004 19.1083 6.64564 19.7799 5.22924 20.1761C3.81285 20.5724 2.33224 20.6856 0.87207 20.5092C3.421 22.1485 6.3882 23.0187 9.41874 23.0159C19.6761 23.0159 25.2854 14.5186 25.2854 7.14924C25.2854 6.90924 25.2787 6.66657 25.2681 6.42924C26.3599 5.64013 27.3022 4.66259 28.0507 3.54257L28.0494 3.54124Z" fill="white"/>
</svg>
